<svg width="24" height="24" viewBox="0 0 24 24" fill="none" xmlns="http://www.w3.org/2000/svg">
<path d="M12.9988 7.99938C16.1673 7.99938 17.9648 10.0964 18.2263 12.6294H18.3063C20.3453 12.6294 21.9983 14.2779 21.9983 16.3119C21.9983 18.3459 20.3453 19.9944 18.3063 19.9944H7.69126C5.65226 19.9944 3.99926 18.3459 3.99926 16.3119C3.99926 14.2779 5.65226 12.6294 7.69126 12.6294H7.77126C8.03426 10.0799 9.83026 7.99938 12.9988 7.99938ZM12.9988 9.24688C10.8683 9.24688 9.01126 10.9709 9.01126 13.3519C9.01126 13.7294 8.68326 14.0254 8.30726 14.0254H7.59726C6.30026 14.0254 5.24876 15.0824 5.24876 16.3859C5.24876 17.6894 6.30026 18.7469 7.59726 18.7469H18.4003C19.6973 18.7469 20.7488 17.6899 20.7488 16.3859C20.7488 15.0824 19.6973 14.0259 18.4003 14.0259H17.6903C17.3143 14.0259 16.9863 13.7294 16.9863 13.3519C16.9863 10.9404 15.1293 9.24688 12.9988 9.24688ZM4.35376 12.1459C4.41255 12.2881 4.41652 12.4471 4.36489 12.5921C4.31327 12.7371 4.20972 12.8578 4.07426 12.9309L4.01676 12.9584L2.86126 13.4394C2.71421 13.4992 2.54985 13.5005 2.40185 13.4431C2.25386 13.3856 2.13343 13.2738 2.06523 13.1304C1.99704 12.9871 1.98624 12.823 2.03505 12.672C2.08385 12.5209 2.18858 12.3942 2.32776 12.3179L2.38526 12.2904L3.54126 11.8094C3.69357 11.7465 3.86463 11.7466 4.01688 11.8096C4.16912 11.8727 4.2906 11.9937 4.35376 12.1459ZM10.8533 7.32588L10.8223 7.33538C10.3603 7.48638 9.93026 7.68638 9.53726 7.93038C9.00028 7.70316 8.40497 7.65251 7.83731 7.78573C7.26965 7.91895 6.75903 8.22916 6.37919 8.67154C5.99936 9.11393 5.76996 9.66559 5.72414 10.2469C5.67831 10.8281 5.81843 11.4089 6.12426 11.9054C5.74807 12.04 5.3908 12.2225 5.06126 12.4484C4.60123 11.6605 4.42875 10.7375 4.57325 9.83664C4.71776 8.93582 5.17028 8.11302 5.85366 7.50858C6.53704 6.90413 7.40895 6.55547 8.32067 6.52207C9.2324 6.48866 10.1275 6.77307 10.8533 7.32588ZM2.78876 7.41488L2.85226 7.43788L4.01176 7.93238C4.32676 8.06538 4.47776 8.42988 4.34926 8.74638C4.22926 9.04238 3.90776 9.19138 3.60926 9.10188L3.54626 9.07938L2.38626 8.58438C2.23485 8.51965 2.11481 8.39822 2.05182 8.24608C1.98883 8.09394 1.98791 7.92319 2.04926 7.77038C2.16926 7.47488 2.49026 7.32538 2.78876 7.41488ZM6.47326 4.32788L6.50076 4.38588L6.98076 5.53888C7.04098 5.68668 7.04238 5.85191 6.98467 6.00071C6.92697 6.1495 6.81452 6.27059 6.6704 6.33913C6.52628 6.40768 6.36139 6.41849 6.20955 6.36936C6.0577 6.32022 5.93041 6.21486 5.85376 6.07488L5.82626 6.01738L5.34626 4.86438C5.2854 4.71648 5.28356 4.55088 5.3411 4.40167C5.39864 4.25245 5.5112 4.13097 5.6556 4.06222C5.8 3.99348 5.96526 3.98271 6.11736 4.03213C6.26947 4.08155 6.39684 4.18739 6.47326 4.32788ZM10.9978 4.04788C11.2988 4.17288 11.4518 4.50288 11.3628 4.80838L11.3398 4.87338L10.8438 6.01138C10.7825 6.16141 10.6659 6.28213 10.518 6.34857C10.3702 6.415 10.2025 6.42207 10.0496 6.36831C9.89677 6.31454 9.77041 6.20406 9.69672 6.05972C9.62303 5.91538 9.60765 5.74824 9.65376 5.59288L9.67676 5.52788L10.1723 4.38988C10.2364 4.23521 10.3593 4.11233 10.514 4.04821C10.6687 3.98409 10.843 3.98397 10.9978 4.04788Z" fill="black"/>
</svg>
