<svg width="24" height="24" viewBox="0 0 24 24" fill="none" xmlns="http://www.w3.org/2000/svg">
<path d="M12.9995 8.005C16.168 8.005 17.9655 10.102 18.227 12.635H18.307C20.346 12.635 21.999 14.2835 21.999 16.3175C21.999 18.3515 20.346 20 18.307 20H7.692C5.653 20 4 18.3515 4 16.3175C4 14.2835 5.653 12.635 7.692 12.635H7.772C8.035 10.0855 9.831 8.005 12.9995 8.005ZM12.9995 9.2525C10.869 9.2525 9.012 10.9765 9.012 13.3575C9.012 13.735 8.684 14.031 8.308 14.031H7.598C6.301 14.031 5.2495 15.088 5.2495 16.3915C5.2495 17.695 6.301 18.7525 7.598 18.7525H18.401C19.698 18.7525 20.7495 17.6955 20.7495 16.3915C20.7495 15.088 19.698 14.0315 18.401 14.0315H17.691C17.315 14.0315 16.987 13.735 16.987 13.3575C16.987 10.946 15.13 9.2525 12.9995 9.2525Z" fill="black"/>
<path d="M17.6347 11C19.1269 11 20.44 10.1322 21 8.84625C20.5559 9.03938 20.0344 9.11531 19.5194 9.11531C18.5554 9.11531 17.6309 8.73237 16.9493 8.05074C16.2676 7.3691 15.8847 6.4446 15.8847 5.48062C15.8847 4.96562 15.9606 4.44406 16.1538 4C14.8678 4.56 14 5.87313 14 7.36531C13.9997 7.66214 14.0358 7.95789 14.1075 8.24594" stroke="black" stroke-linecap="round" stroke-linejoin="round"/>
</svg>
