<svg width="24" height="24" viewBox="0 0 24 24" fill="none" xmlns="http://www.w3.org/2000/svg">
<path d="M12.9004 11.55V13.8H7.50039V11.55M16.9621 6.6C15.5734 4.8 17.7055 3.9 18.3004 3C18.8953 3.9 21.0274 4.8 19.6396 6.6H16.9621ZM7.52289 11.55C4.74639 7.95 9.01059 6.15 10.2004 4.35C11.3902 6.15 15.6544 7.95 12.8779 11.55H7.52289ZM16.5004 21H3.90039V16.5C3.90039 15.2274 3.90039 14.5911 4.29639 14.196C4.69059 13.8 5.32689 13.8 6.60039 13.8H13.8004C15.073 13.8 15.7093 13.8 16.1044 14.196C16.5004 14.5911 16.5004 15.2274 16.5004 16.5V21Z" stroke="black" stroke-width="1.2" stroke-linecap="round" stroke-linejoin="round"/>
<path d="M8.40039 21V20.1C8.40039 19.2198 8.40039 18.7797 8.52819 18.3783C8.61298 18.1128 8.73836 17.862 8.89989 17.6349C9.14379 17.2929 9.49569 17.0283 10.2004 16.5C10.9051 17.0283 11.257 17.292 11.5009 17.6349C11.6624 17.862 11.7878 18.1128 11.8726 18.3783C12.0004 18.7797 12.0004 19.2198 12.0004 20.1V21M16.9504 6.60001L16.5004 14.7M16.5004 21H20.1004L19.6504 6.60001" stroke="black" stroke-width="1.2" stroke-linecap="round" stroke-linejoin="round"/>
</svg>
