<svg viewBox="0 0 18 18" fill="none" xmlns="http://www.w3.org/2000/svg">
    <path
        d="M6.93572 0.0653665C7.00105 0.0512761 7.06383 0.0269364 7.12788 0.0218122C7.24573 0.0141252 7.23399 0.143473 7.12766 0.213928C6.69852 0.503438 6.46153 1.021 6.57298 1.55902C6.71901 2.27384 7.41717 2.73117 8.13071 2.58385C8.32543 2.54414 8.49452 2.46215 8.64312 2.34942C8.74432 2.27256 8.80709 2.40195 8.72895 2.54158C8.49837 2.95279 8.09612 3.25129 7.59781 3.35249C7.52574 3.36724 7.46047 3.35485 7.39641 3.33535C7.28098 3.30022 7.19121 3.39746 7.23562 3.50965C7.2973 3.66545 7.39579 3.87056 7.59781 4.18517C8.03335 4.86539 8.73918 5.67118 9.8396 6.19254C10.8888 6.69086 11.7304 7.37367 12.2941 8.15637C12.859 8.93908 13.1485 9.80892 13.1485 10.6979C13.1485 11.5588 12.9359 12.4196 12.5503 13.196C12.2313 13.8392 11.8011 14.4296 11.2803 14.9413C11.17 15.0497 11.2442 15.2456 11.3989 15.2456H12.4657C13.2203 15.2456 13.8313 15.8567 13.8313 16.6112V17.8114C13.8313 17.9035 13.7567 17.9781 13.6647 17.9781H0.334635C0.242588 17.9781 0.167969 17.9035 0.167969 17.8114V16.6112C0.167969 15.8567 0.779027 15.2456 1.53356 15.2456H2.6209C2.77556 15.2456 2.84962 15.05 2.73878 14.9421C2.21276 14.4302 1.76817 13.8396 1.44902 13.196C1.06343 12.4196 0.850781 11.5588 0.850781 10.6979C0.850781 9.80892 1.16207 8.93908 1.72574 8.15637C2.29069 7.37367 3.11055 6.69086 4.15971 6.19254C5.26009 5.67115 5.96596 4.86539 6.4015 4.18517C6.64599 3.80505 6.75094 3.56448 6.81302 3.39453C6.84634 3.30334 6.79118 3.20396 6.69927 3.17269C6.17179 2.99325 5.73273 2.63759 5.6124 2.05097C5.42537 1.13758 6.02233 0.252396 6.93572 0.0653665Z"
        fill="#72B189" />
</svg>
