<svg width="22" height="22" viewBox="0 0 22 22" fill="none" xmlns="http://www.w3.org/2000/svg">
<path d="M11.2354 6.00586C12.4094 6.06406 13.5232 6.55643 14.3584 7.3916C15.2492 8.2824 15.75 9.49022 15.75 10.75L15.7441 10.9854C15.7418 11.0317 15.737 11.0779 15.7334 11.124C17.8286 11.5064 19.9516 12.2076 22 13.3457C21.5769 15.1539 19.7948 17.6847 17.7695 19.2227C13.8251 22.2177 8.1925 23.2323 3.47949 18.4189C3.4518 18.3981 3.42464 18.3758 3.39941 18.3506C3.36706 18.3182 3.33868 18.2834 3.31348 18.2471C2.1355 17.0038 1.01674 15.3907 0 13.3457C1.40611 12.6223 3.62 11.7923 6.2793 11.2695C6.26039 11.0978 6.25 10.9244 6.25 10.75C6.25 9.49022 6.7508 8.2824 7.6416 7.3916C8.5324 6.5008 9.74022 6 11 6L11.2354 6.00586ZM15.5 12.75C11.9 11.15 8 12.0833 6.5 12.75L11 20.25L15.5 12.75ZM3 10C3.41421 10 3.75 10.3358 3.75 10.75C3.75 11.1642 3.41421 11.5 3 11.5H1C0.585786 11.5 0.25 11.1642 0.25 10.75C0.25 10.3358 0.585786 10 1 10H3ZM21 10C21.4142 10 21.75 10.3358 21.75 10.75C21.75 11.1642 21.4142 11.5 21 11.5H19C18.5858 11.5 18.25 11.1642 18.25 10.75C18.25 10.3358 18.5858 10 19 10H21ZM11 7.5C10.138 7.5 9.31164 7.84266 8.70215 8.45215C8.09266 9.06164 7.75 9.88805 7.75 10.75L7.75391 10.9111C7.75569 10.9471 7.7607 10.9828 7.76367 11.0186C9.77415 10.7336 11.979 10.6473 14.2461 10.9062C14.2486 10.8543 14.25 10.8022 14.25 10.75L14.2461 10.5889C14.2063 9.78558 13.8693 9.02356 13.2979 8.45215C12.7264 7.88074 11.9644 7.54375 11.1611 7.50391L11 7.5ZM3.39941 3.14941C3.6922 2.85663 4.16704 2.85683 4.45996 3.14941L5.87012 4.55957C6.16301 4.85246 6.16301 5.32722 5.87012 5.62012C5.57722 5.91301 5.10246 5.91301 4.80957 5.62012L3.39941 4.20996C3.10683 3.91704 3.10663 3.4422 3.39941 3.14941ZM17.54 3.14941C17.833 2.85683 18.3078 2.85663 18.6006 3.14941C18.8934 3.4422 18.8932 3.91704 18.6006 4.20996L17.1904 5.62012C16.8975 5.91301 16.4228 5.91301 16.1299 5.62012C15.837 5.32722 15.837 4.85246 16.1299 4.55957L17.54 3.14941ZM11 0C11.4142 0 11.75 0.335786 11.75 0.75V2.75C11.75 3.16421 11.4142 3.5 11 3.5C10.5858 3.5 10.25 3.16421 10.25 2.75V0.75C10.25 0.335786 10.5858 0 11 0Z" fill="black"/>
</svg>
